# xmcd
#
# Track frame offsets:
#	150
#	33434
#	70798
#	119300
#	155426
#	187863
#	222557
#	260107
#
# Disc length: 3987 seconds
#
# Revision: 3
# Processed by: cddbd v1.5.2PL0 Copyright (c) Steve Scherf et al.
# Submitted via: audiograbber 1.83.01
#
DISCID=710f9108
DTITLE=Dave Holland and Zakir Hussain and Chris Potter - Good Hope
DYEAR=2019
DGENRE=Jazz
TTITLE0=Ziandi
TTITLE1=J Bhai
TTITLE2=Lucky Seven
TTITLE3=Suvarna
TTITLE4=Island Feeling
TTITLE5=Bedouin Trail
TTITLE6=Good Hope
TTITLE7=Mazad
EXTD=
EXTT0=
EXTT1=
EXTT2=
EXTT3=
EXTT4=
EXTT5=
EXTT6=
EXTT7=
PLAYORDER=
